<svg width="33" height="35" viewBox="0 0 33 35" fill="none" xmlns="http://www.w3.org/2000/svg">
<path d="M32.9 26.0765L32.8767 2.52833C32.8767 1.7847 32.6672 1.18154 32.2481 0.718839C31.8134 0.239613 31.2313 0 30.5018 0H8.38217C7.69917 0 7.14812 0.239613 6.72902 0.718839C6.29439 1.18154 6.07707 1.72686 6.07707 2.35482C6.07707 2.98277 6.30215 3.52809 6.7523 3.99079C7.18693 4.43697 7.69917 4.66006 8.28903 4.66006H16.0425L26.1477 4.31303L22.0963 8.10552L0.698514 30.8853C0.232838 31.3975 0 31.9594 0 32.5708C0 32.9839 0.108658 33.3805 0.325973 33.7606C0.527766 34.1242 0.807172 34.4216 1.16419 34.653C1.52121 34.8843 1.89375 35 2.28181 35C2.87167 35 3.39943 34.7604 3.86511 34.2812L25.2862 11.5014L28.8719 7.18839L28.4761 17.4504V26.1756C28.4761 26.8036 28.6934 27.3572 29.128 27.8364C29.5627 28.3156 30.0749 28.5552 30.6648 28.5552C31.2701 28.5552 31.7979 28.3239 32.2481 27.8612C32.6827 27.382 32.9 26.7871 32.9 26.0765Z" fill="#377B49"/>
</svg>
